[{"_id":"bnPIefX6jLIffJF!","sub":"snd:a|0|0","t":"cell","v":1,"audioPath":"sound/g-3rd-mp3/A2-min-001.mp3","map":"snd:a","hue":0,"cls":"g-3rd","midi":45,"x":0,"y":0},{"_id":"QWyNp4CrsO4mzxi!","sub":"snd:a|0|0","t":"cell","v":1,"audioPath":"sound/g-3rd-mp3/A2-min-002.mp3","map":"snd:a","hue":0.001,"cls":"g-3rd","midi":45,"x":0,"y":1},{"_id":"gTSmMpjeLAJfM21!","sub":"snd:a|0|0","t":"cell","v":1,"audioPath":"sound/g-3rd-mp3/A2-min-003.mp3","map":"snd:a","hue":0.002,"cls":"g-3rd","midi":45,"x":0,"y":2},{"_id":"0ubhjDYoX5SXwS6!","sub":"snd:a|0|0","t":"cell","v":1,"audioPath":"sound/g-3rd-mp3/A2-min-004.mp3","map":"snd:a","hue":0.003,"cls":"g-3rd","midi":45,"x":0,"y":3},{"_id":"HoEBTF9BIPoAR7g!","sub":"snd:a|0|0","t":"cell","v":1,"audioPath":"sound/g-3rd-mp3/A3-min-001.mp3","map":"snd:a","hue":0.90999997,"cls":"g-3rd","midi":57,"x":7,"y":0},{"_id":"Rrjstp8xXHtRJS7!","sub":"snd:a|0|0","t":"cell","v":1,"audioPath":"sound/g-3rd-mp3/A3-min-002.mp3","map":"snd:a","hue":0.91099995,"cls":"g-3rd","midi":57,"x":7,"y":1},{"_id":"krSbKQojoqUUeTB!","sub":"snd:a|0|0","t":"cell","v":1,"audioPath":"sound/g-3rd-mp3/A3-min-003.mp3","map":"snd:a","hue":0.91199994,"cls":"g-3rd","midi":57,"x":7,"y":2},{"_id":"jGpMIl4oZmmn1ll!","sub":"snd:a|0|0","t":"cell","v":1,"audioPath":"sound/g-3rd-mp3/A3-min-004.mp3","map":"snd:a","hue":0.913,"cls":"g-3rd","midi":57,"x":7,"y":3},{"_id":"j5IxmIe2BJ3iFNI!","sub":"snd:a|0|0","t":"cell","v":1,"audioPath":"sound/g-3rd-mp3/A3-min-005.mp3","map":"snd:a","hue":0.914,"cls":"g-3rd","midi":57,"x":7,"y":4},{"_id":"NhXHYyA7YtPAn9l!","sub":"snd:a|0|0","t":"cell","v":1,"audioPath":"sound/g-3rd-mp3/B2-8va-000.mp3","map":"snd:a","hue":0.13,"cls":"g-3rd","midi":47,"x":1,"y":0},{"_id":"U40NbAxAnV6UVyC!","sub":"snd:a|0|0","t":"cell","v":1,"audioPath":"sound/g-3rd-mp3/B2-min-001.mp3","map":"snd:a","hue":0.131,"cls":"g-3rd","midi":47,"x":1,"y":1},{"_id":"LMSefCHj0XOlzo2!","sub":"snd:a|0|0","t":"cell","v":1,"audioPath":"sound/g-3rd-mp3/B2-min-002.mp3","map":"snd:a","hue":0.132,"cls":"g-3rd","midi":47,"x":1,"y":2},{"_id":"VbNlvUpn8odEK8I!","sub":"snd:a|0|0","t":"cell","v":1,"audioPath":"sound/g-3rd-mp3/B2-min-003.mp3","map":"snd:a","hue":0.133,"cls":"g-3rd","midi":47,"x":1,"y":3},{"_id":"EvlTHhWSnPHQuqy!","sub":"snd:a|0|0","t":"cell","v":1,"audioPath":"sound/g-3rd-mp3/B2-min-004.mp3","map":"snd:a","hue":0.13399999,"cls":"g-3rd","midi":47,"x":1,"y":4},{"_id":"dvd4tRB2YtSA4eF!","sub":"snd:a|0|0","t":"cell","v":1,"audioPath":"sound/g-3rd-mp3/B2-min-005.mp3","map":"snd:a","hue":0.13499999,"cls":"g-3rd","midi":47,"x":1,"y":5},{"_id":"sJzKt7dGUMndXwt!","sub":"snd:a|0|0","t":"cell","v":1,"audioPath":"sound/g-3rd-mp3/B2-min-006.mp3","map":"snd:a","hue":0.13599999,"cls":"g-3rd","midi":47,"x":1,"y":6},{"_id":"woBHuFNlJd00vpD!","sub":"snd:a|0|0","t":"cell","v":1,"audioPath":"sound/g-3rd-mp3/C3-maj-001.mp3","map":"snd:a","hue":0.26,"cls":"g-3rd","midi":48,"x":2,"y":0},{"_id":"GC4jnzhIC1hxyyT!","sub":"snd:a|0|0","t":"cell","v":1,"audioPath":"sound/g-3rd-mp3/C3-maj-002.mp3","map":"snd:a","hue":0.26099998,"cls":"g-3rd","midi":48,"x":2,"y":1},{"_id":"PfxnD8ybRawtfzV!","sub":"snd:a|0|0","t":"cell","v":1,"audioPath":"sound/g-3rd-mp3/C3-maj-003.mp3","map":"snd:a","hue":0.262,"cls":"g-3rd","midi":48,"x":2,"y":2},{"_id":"qTjKKBeuLFp72fl!","sub":"snd:a|0|0","t":"cell","v":1,"audioPath":"sound/g-3rd-mp3/C3-maj-004.mp3","map":"snd:a","hue":0.26299998,"cls":"g-3rd","midi":48,"x":2,"y":3},{"_id":"ZpC2DYivCgVSWAS!","sub":"snd:a|0|0","t":"cell","v":1,"audioPath":"sound/g-3rd-mp3/C3-maj-005.mp3","map":"snd:a","hue":0.264,"cls":"g-3rd","midi":48,"x":2,"y":4},{"_id":"TuzYHiQSbJ3m09f!","sub":"snd:a|0|0","t":"cell","v":1,"audioPath":"sound/g-3rd-mp3/C3-maj-006.mp3","map":"snd:a","hue":0.265,"cls":"g-3rd","midi":48,"x":2,"y":5},{"_id":"2eAhuQRagZBuo2l!","sub":"snd:a|0|0","t":"cell","v":1,"audioPath":"sound/g-3rd-mp3/D2-8va.mp3","map":"snd:a","hue":-0.26,"cls":"g-3rd","midi":-1,"x":-2,"y":0},{"_id":"fEWMByucoe6zmov!","sub":"snd:a|0|0","t":"cell","v":1,"audioPath":"sound/g-3rd-mp3/D3-maj-001.mp3","map":"snd:a","hue":0.39,"cls":"g-3rd","midi":50,"x":3,"y":0},{"_id":"yXqOgedXSlqA0jd!","sub":"snd:a|0|0","t":"cell","v":1,"audioPath":"sound/g-3rd-mp3/D3-maj-002.mp3","map":"snd:a","hue":0.39099997,"cls":"g-3rd","midi":50,"x":3,"y":1},{"_id":"y1c7oRHdjGdXEou!","sub":"snd:a|0|0","t":"cell","v":1,"audioPath":"sound/g-3rd-mp3/D3-maj-003.mp3","map":"snd:a","hue":0.392,"cls":"g-3rd","midi":50,"x":3,"y":2},{"_id":"2iDp6MvlEQVgyxy!","sub":"snd:a|0|0","t":"cell","v":1,"audioPath":"sound/g-3rd-mp3/D3-maj-004.mp3","map":"snd:a","hue":0.39299998,"cls":"g-3rd","midi":50,"x":3,"y":3},{"_id":"osqAdozqaaB0tY5!","sub":"snd:a|0|0","t":"cell","v":1,"audioPath":"sound/g-3rd-mp3/D3-maj-005.mp3","map":"snd:a","hue":0.394,"cls":"g-3rd","midi":50,"x":3,"y":4},{"_id":"CrwiRjAnPq57ZiJ!","sub":"snd:a|0|0","t":"cell","v":1,"audioPath":"sound/g-3rd-mp3/D3-maj-006.mp3","map":"snd:a","hue":0.39499998,"cls":"g-3rd","midi":50,"x":3,"y":5},{"_id":"SJ7hL0bhHOBkERO!","sub":"snd:a|0|0","t":"cell","v":1,"audioPath":"sound/g-3rd-mp3/E3-min-001.mp3","map":"snd:a","hue":0.52,"cls":"g-3rd","midi":52,"x":4,"y":0},{"_id":"fnwuLb93PmpnH9S!","sub":"snd:a|0|0","t":"cell","v":1,"audioPath":"sound/g-3rd-mp3/E3-min-002.mp3","map":"snd:a","hue":0.52099997,"cls":"g-3rd","midi":52,"x":4,"y":1},{"_id":"UH4oMhDAID06d5P!","sub":"snd:a|0|0","t":"cell","v":1,"audioPath":"sound/g-3rd-mp3/E3-min-003.mp3","map":"snd:a","hue":0.52199996,"cls":"g-3rd","midi":52,"x":4,"y":2},{"_id":"L3ojE0NeeGfUrYG!","sub":"snd:a|0|0","t":"cell","v":1,"audioPath":"sound/g-3rd-mp3/E3-min-004.mp3","map":"snd:a","hue":0.523,"cls":"g-3rd","midi":52,"x":4,"y":3},{"_id":"D9Dd7jeknhBtO31!","sub":"snd:a|0|0","t":"cell","v":1,"audioPath":"sound/g-3rd-mp3/E3-min-005.mp3","map":"snd:a","hue":0.524,"cls":"g-3rd","midi":52,"x":4,"y":4},{"_id":"ueb1Jb5dzjpW5wl!","sub":"snd:a|0|0","t":"cell","v":1,"audioPath":"sound/g-3rd-mp3/E3-min-006.mp3","map":"snd:a","hue":0.525,"cls":"g-3rd","midi":52,"x":4,"y":5},{"_id":"O7QT45eKZ0Q18HA!","sub":"snd:a|0|0","t":"cell","v":1,"audioPath":"sound/g-3rd-mp3/E3-min-007.mp3","map":"snd:a","hue":0.52599996,"cls":"g-3rd","midi":52,"x":4,"y":6},{"_id":"lH9P8lfNKNiMQbs!","sub":"snd:a|0|0","t":"cell","v":1,"audioPath":"sound/g-3rd-mp3/Fs3-min-001.mp3","map":"snd:a","hue":0.65,"cls":"g-3rd","midi":54,"x":5,"y":0},{"_id":"g94FIA7WfvQDcIc!","sub":"snd:a|0|0","t":"cell","v":1,"audioPath":"sound/g-3rd-mp3/Fs3-min-002.mp3","map":"snd:a","hue":0.65099996,"cls":"g-3rd","midi":54,"x":5,"y":1},{"_id":"zHaOdFoaETZf4Oo!","sub":"snd:a|0|0","t":"cell","v":1,"audioPath":"sound/g-3rd-mp3/Fs3-min-003.mp3","map":"snd:a","hue":0.65199995,"cls":"g-3rd","midi":54,"x":5,"y":2},{"_id":"xy1Yk5iiZjjaZGu!","sub":"snd:a|0|0","t":"cell","v":1,"audioPath":"sound/g-3rd-mp3/Fs3-min-004.mp3","map":"snd:a","hue":0.653,"cls":"g-3rd","midi":54,"x":5,"y":3},{"_id":"e6YGcSLgM6rPzna!","sub":"snd:a|0|0","t":"cell","v":1,"audioPath":"sound/g-3rd-mp3/Fs3-min-005.mp3","map":"snd:a","hue":0.654,"cls":"g-3rd","midi":54,"x":5,"y":4},{"_id":"wKeHrfAbZLgUseB!","sub":"snd:a|0|0","t":"cell","v":1,"audioPath":"sound/g-3rd-mp3/G2-p5-000.mp3","map":"snd:a","hue":-0.259,"cls":"g-3rd","midi":-1,"x":-2,"y":1},{"_id":"FbC6Jvqq4Ie64TJ!","sub":"snd:a|0|0","t":"cell","v":1,"audioPath":"sound/g-3rd-mp3/G3-maj-001.mp3","map":"snd:a","hue":0.78,"cls":"g-3rd","midi":55,"x":6,"y":0},{"_id":"UlJ8Mait49IE7CQ!","sub":"snd:a|0|0","t":"cell","v":1,"audioPath":"sound/g-3rd-mp3/G3-maj-002.mp3","map":"snd:a","hue":0.78099996,"cls":"g-3rd","midi":55,"x":6,"y":1},{"_id":"8hE9qCGWQ45N256!","sub":"snd:a|0|0","t":"cell","v":1,"audioPath":"sound/g-3rd-mp3/G3-maj-003.mp3","map":"snd:a","hue":0.78199995,"cls":"g-3rd","midi":55,"x":6,"y":2},{"_id":"i3dfEVIxHaO4rll!","sub":"snd:a|0|0","t":"cell","v":1,"audioPath":"sound/g-3rd-mp3/G3-maj-004.mp3","map":"snd:a","hue":0.783,"cls":"g-3rd","midi":55,"x":6,"y":3},{"_id":"CAgtXXaMZI7g9lt!","sub":"snd:a|0|0","t":"cell","v":1,"audioPath":"sound/g-3rd-mp3/G3-maj-005.mp3","map":"snd:a","hue":0.784,"cls":"g-3rd","midi":55,"x":6,"y":4}]